<!--?xml version="1.0" encoding="utf-8"?-->
<!-- Generator: Adobe Illustrator 18.1.1, SVG Export Plug-In . SVG Version: 6.00 Build 0)  -->

<svg version="1.1" id="_x32_" xmlns="http://www.w3.org/2000/svg" xmlns:xlink="http://www.w3.org/1999/xlink" x="0px" y="0px" viewBox="0 0 512 512" style="width: 128px; height: 128px; opacity: 1;" xml:space="preserve">
<style type="text/css">
	.st0{fill:#4B4B4B;}
</style>
<g>
	<path class="st0" d="M77.573,502.219c0,5.394,4.376,9.781,9.771,9.781h58.033c5.414,0,9.78-4.386,9.78-9.781v-28.415H77.573
		V502.219z" style="fill: rgb(255, 255, 250);"></path>
	<path class="st0" d="M356.864,502.219c0,5.394,4.367,9.781,9.77,9.781h58.013c5.425,0,9.78-4.386,9.78-9.781v-28.415h-77.563
		V502.219z" style="fill: rgb(255, 255, 250);"></path>
	<path class="st0" d="M256.005,0C152.5,0,38.786,10.076,38.786,78.469v321.66v8.162v37.332c0,8.101,6.564,14.665,14.666,14.665
		h405.106c8.101,0,14.655-6.564,14.655-14.665v-37.332v-8.162V78.469C473.214,10.076,359.511,0,256.005,0z M162.911,48.261h186.178
		v31.032H162.911V48.261z M89.216,149.406c0-5.394,4.376-9.77,9.771-9.77h314.037c5.394,0,9.77,4.376,9.77,9.77v99.129
		c0,5.405-4.376,9.77-9.77,9.77H98.987c-5.394,0-9.771-4.366-9.771-9.77V149.406z M151.706,403.416c0,2.687-2.178,4.885-4.886,4.885
		h-20.792c-5.078,0-10.065-1.322-14.482-3.836l-20.294-11.532c-1.527-0.875-2.473-2.493-2.473-4.254v-18.035
		c0-2.687,2.189-4.885,4.886-4.885h53.156c2.708,0,4.886,2.198,4.886,4.885V403.416z M303.514,427.537h-95.018v-55.172h95.018
		V427.537z M423.232,388.679c0,1.761-0.946,3.379-2.473,4.254l-20.294,11.532c-4.417,2.514-9.404,3.836-14.493,3.836H365.19
		c-2.707,0-4.896-2.198-4.896-4.885v-32.772c0-2.687,2.189-4.885,4.896-4.885h53.157c2.696,0,4.885,2.198,4.885,4.885V388.679z" style="fill: rgb(255, 255, 250);"></path>
</g>
</svg>
